<?xml version="1.0" encoding="iso-8859-1"?>
<!-- Generator: Adobe Illustrator 19.0.0, SVG Export Plug-In . SVG Version: 6.00 Build 0)  -->
<svg version="1.1" id="Capa_1" xmlns="http://www.w3.org/2000/svg" xmlns:xlink="http://www.w3.org/1999/xlink" x="0px" y="0px"
	 viewBox="0 0 512.001 512.001" style="enable-background:new 0 0 512.001 512.001;" xml:space="preserve">
<path style="fill:#ACABB1;" d="M506.59,510.795H5.411c-3.322,0-5.856-2.96-5.345-6.239c5.27-33.847,9.923-56.728,13.33-60.912
	c15.992-19.442,120.312-41.779,145.173-46.964h196.3c0.545,0-0.011-0.026,7.581,1.778c34.337,8.124,120.482,26.234,136.059,45.186
	c3.407,4.184,8.092,27.065,13.426,60.901C512.446,507.824,509.912,510.795,506.59,510.795z"/>
<g>
	<path style="fill:#3E3D42;" d="M193.523,510.795H5.411c-3.322,0-5.856-2.96-5.345-6.239c5.27-33.847,9.923-56.728,13.33-60.912
		c15.992-19.442,120.312-41.779,145.173-46.964C195.248,514.479,183.664,479.577,193.523,510.795z"/>
	<path style="fill:#3E3D42;" d="M506.59,510.795H318.903c15.481-48.487,30.483-96.761,35.87-114.115h0.096
		c0.202,0,0.405,0.021,0.596,0.075c0.245,0.064,0.5,0.128,0.756,0.192c22.156,5.538,79.457,17.22,115.106,31.111
		c12.83,4.993,22.795,10.253,27.182,15.587c3.407,4.184,8.092,27.065,13.426,60.901C512.446,507.824,509.912,510.795,506.59,510.795
		z"/>
	
		<ellipse transform="matrix(0.2911 0.9567 -0.9567 0.2911 299.2201 41.8974)" style="fill:#3E3D42;" cx="121.339" cy="222.854" rx="44.037" ry="31.377"/>
</g>
<path style="fill:#FFA733;" d="M431.788,228.113c-6.138,20.17-24.169,38.292-42.458,32.702
	c-18.669-5.672-23.027-31.095-17.058-50.813c6.57-21.552,25.017-37.996,42.47-32.703
	C431.175,182.299,438.812,205.05,431.788,228.113z"/>
<path style="fill:#FF9811;" d="M407.277,176.339c-0.011,0.116-8.54,85.178-8.563,85.298c-20.594,2.348-35.358-22.191-26.442-51.635
	C378.254,190.376,392.905,176.849,407.277,176.339z"/>
<path style="fill:#FFDAAA;" d="M421.684,225.039c-4.053,13.32-15.961,25.288-28.039,21.597
	c-12.375-3.759-15.19-20.593-11.265-33.556c4.148-13.608,16.113-25.217,28.047-21.597
	C421.279,194.783,426.323,209.808,421.684,225.039z"/>
<rect x="204.967" y="327.962" style="fill:#FFB655;" width="108.164" height="66.97"/>
<rect x="204.967" y="327.962" style="fill:#FF9811;" width="24.488" height="66.97"/>
<path style="fill:#FFB655;" d="M227.585,351.19c-36.843-19.724-92.797-57.255-92.797-103.281l-8.637-74.371
	c0-70.61,53.781-128.384,119.512-128.384h33.485c65.732,0,119.512,57.772,119.512,128.384l-8.637,74.371
	c0,46.698-60.615,84.652-99.342,104.134C270.783,362.054,247.226,361.704,227.585,351.19z"/>
<path style="fill:#FFAF82;" d="M260.76,45.302c1.895-0.096,3.812-0.149,5.728-0.149C264.869,45.313,262.953,45.334,260.76,45.302z"
	/>
<path style="fill:#FFA733;" d="M270.395,358.529c-2.474,0.389-5.621,0.688-8.401,0.756c-0.021,0.011-0.043,0.011-0.053,0
	c-7.896,0.259-16.313-0.939-24.595-3.812h-0.011c-5.495-1.934-9.39-3.997-15.055-7.176c-37.813-21.085-87.498-56.943-87.498-100.391
	c-8.022-71.22-12.654-82.024-2.577-114.595v-0.032c14.726-47.559,55.908-86.247,111.081-88.094c3.79-0.117,7.293-0.085,10.445-0.032
	c2.577,0.053,4.919,0.128,7.027,0.149c-37.35,1.916-70.345,22.487-91.054,53.161c-1.235,12.947,2.747,28.002-8.709,48.04
	l-13.319,32.995l7.943,68.407c0,46.027,55.95,83.558,92.789,103.277C257.173,355.888,267.912,358.529,270.395,358.529z"/>
<g>
	<path style="fill:#CC7400;" d="M166.99,149.929c-2.824,0-5.557-1.505-7.019-4.16c-2.136-3.877-0.698-8.764,3.178-10.898
		c0.973-0.536,24.171-12.977,54.198-0.369c4.081,1.713,6,6.41,4.287,10.491s-6.414,6-10.491,4.287
		c-22.627-9.499-39.601-0.72-40.313-0.342C169.609,149.61,168.29,149.929,166.99,149.929z"/>
	<path style="fill:#CC7400;" d="M304.029,149.929c-2.824,0-5.557-1.505-7.018-4.16c-2.136-3.877-0.698-8.764,3.178-10.898
		c0.972-0.537,24.17-12.979,54.198-0.369c4.081,1.713,6,6.41,4.287,10.491c-1.713,4.081-6.413,6-10.491,4.287
		c-22.627-9.499-39.601-0.72-40.312-0.342C306.648,149.61,305.329,149.929,304.029,149.929z"/>
</g>
<path style="fill:#57565C;" d="M177.808,490.076c0.841-1.075,0.075-2.683-1.31-2.683c-25.425-0.767-31.27,1.714-30.717-1.927
	l5.558-87.253c2.843-0.618,5.281-1.129,7.229-1.533h1.597c5.441,18.749,19.516,67.822,19.686,68.322
	c0.575,1.853,0.937,3.034,1.15,3.716c1.65,5.121,5.249,19.048,12.521,42.077h-29.705L177.808,490.076z"/>
<path style="fill:#3E3D42;" d="M254.861,365.24l-50.943-3.458c-33.335-2.261-62.347-25.16-72.315-57.027l-21.817-52.907
	l14.764-6.089l22.096,53.585l0.11,0.353c7.929,25.779,31.336,44.325,58.244,46.152l50.943,3.458L254.861,365.24z"/>
<ellipse style="fill:#57565C;" cx="260.917" cy="355.123" rx="25.138" ry="16.16"/>
<path style="fill:#EE8700;" d="M179.106,65.53c-26.568,17.937-27.471,23.109-27.034,48.149c0.201,11.5-2.728,22.839-8.438,32.824
	l-13.991,34.657c-1.216,3.012-5.44,3.212-6.887,0.303c-4.756-9.562-7.911-24.325-7.911-32.996
	C114.847,24.119,177.459,64.499,179.106,65.53z"/>
<g>
	<path style="fill:#CC7400;" d="M152.074,113.678c0.202,11.499-2.726,22.838-8.443,32.825l-13.99,34.656
		c-1.214,3.013-5.441,3.215-6.889,0.309c-1.608-3.237-3.034-7.07-4.206-11.062l9.646-23.903c5.717-9.987,8.645-21.326,8.443-32.825
		c-0.437-25.042,0.468-30.216,27.033-48.146c-0.511-0.319-6.761-4.344-15.183-6.175c15.14-3.79,29.833,5.686,30.621,6.175
		C152.543,83.461,151.638,88.636,152.074,113.678z"/>
	<path style="fill:#CC7400;" d="M408.136,148.462c0,8.166-1.608,23.147-5.292,33.368c-1.214,3.364-6.005,3.237-6.995-0.202
		c-18.017-62.75-17.238-77.15-41.662-86.508C236.191,49.892,175.588,172.552,82.027,17.215c-2.758-5.1,1.214-11.222,6.995-10.796
		c6.867,2.183,13.543,3.897,20.059,5.217c64.66,13.138,113.455-12.574,167.425-10.285C432.827,8.059,407.987,95.663,408.136,148.462
		z"/>
</g>
<g>
	<path style="fill:#AA6100;" d="M206.758,97.739C166,102.765,128.001,93.544,82.027,17.215c-2.758-5.1,1.214-11.222,6.995-10.796
		c6.867,2.183,13.543,3.897,20.059,5.217C128.48,37.519,166.522,82.407,206.758,97.739z"/>
	<path style="fill:#AA6100;" d="M388.642,155.723c-11.158-41.108-13.777-52.682-34.454-60.603
		c-21.028-8.06-40.235-10.796-58.122-10.7l-0.043-0.032C296.023,84.388,399.512,26.861,388.642,155.723z"/>
</g>
<g>
	<path style="fill:#CC7400;" d="M269.658,269.828H252.64c-13.182,0-23.907-10.724-23.907-23.906v-61.64
		c0-4.411,3.574-7.985,7.985-7.985c4.411,0,7.985,3.574,7.985,7.985v61.64c0,4.375,3.56,7.935,7.936,7.935h17.018
		c4.411,0,7.985,3.574,7.985,7.985C277.644,266.254,274.069,269.828,269.658,269.828z"/>
	<path style="fill:#CC7400;" d="M259.253,317.475c-7.425,0-13.932-1.204-19.331-2.827c-16.876-5.073-26.766-15.272-27.178-15.703
		c-3.047-3.188-2.934-8.242,0.252-11.29c3.178-3.039,8.213-2.935,11.266,0.227c1.3,1.33,30.833,30.575,75.446-0.974
		c3.6-2.55,8.585-1.693,11.129,1.909c2.548,3.601,1.692,8.584-1.909,11.129C290.027,313.313,273.054,317.475,259.253,317.475z"/>
</g>
<g>
	<circle style="fill:#AA6100;" cx="190.625" cy="195.97" r="12.432"/>
	<circle style="fill:#AA6100;" cx="327.664" cy="195.97" r="12.432"/>
</g>
<path style="fill:#2D2D30;" d="M13.396,443.644c-3.407,4.184-8.06,27.065-13.33,60.912c-0.511,3.279,2.023,6.239,5.345,6.239h16.748
	c6.292-45.101,11.84-75.541,15.917-81.163c0.106-0.149,0.213-0.287,0.33-0.437C26.439,433.997,17.293,438.906,13.396,443.644z"/>
<path style="fill:#3E3D42;" d="M276.56,510.793h-39.841c1.075-26.075,2.332-55.407,3.79-88.413h33.751L276.56,510.793z"/>
<path style="fill:#2D2D30;" d="M252.945,422.379c-1.459,33.006-2.715,62.339-3.801,88.413h-12.425
	c1.075-26.075,2.332-55.407,3.79-88.413H252.945z"/>
<polygon style="fill:#57565C;" points="286.471,412.919 271.987,428.618 240.503,428.618 226.019,412.919 241.133,380.165 
	271.358,380.165 "/>
<path style="fill:#C6C5CA;" d="M243.042,378.509c-1.68,9.742-8.616,49.947-11.81,68.461c-0.744,4.312-5.788,6.279-9.271,3.632
	c-18.696-14.2-65.101-49.945-63.824-53.93c0.5-1.288,8.201-21.996,15.927-21.996h66.522
	C242.223,374.929,243.323,376.876,243.042,378.509z"/>
<path style="fill:#57565C;" d="M335.481,487.392c-1.384,0-2.151,1.608-1.31,2.683l13.99,20.719h-29.705
	c7.272-23.03,10.871-36.956,12.521-42.077c0.213-0.681,0.575-1.863,1.15-3.716c0.16-0.458,13.309-46.24,19.686-68.322h3.06
	c0.202,0,0.397,0.023,0.593,0.073c1.975,0.504,4.325,1.075,6.983,1.705l3.748,87.008
	C366.751,489.107,360.906,486.626,335.481,487.392z"/>
<path style="fill:#C6C5CA;" d="M295.162,450.502c-3.342,2.73-8.376,1.03-9.36-3.172c-4.24-18.123-13.576-58.049-16.066-68.865
	c-0.4-1.741,0.806-3.646,2.586-3.789h66.105c7.727,0,15.427,20.709,15.927,21.996C355.616,400.616,312.641,436.225,295.162,450.502z
	"/>
<g>
</g>
<g>
</g>
<g>
</g>
<g>
</g>
<g>
</g>
<g>
</g>
<g>
</g>
<g>
</g>
<g>
</g>
<g>
</g>
<g>
</g>
<g>
</g>
<g>
</g>
<g>
</g>
<g>
</g>
</svg>
